<svg width="24" height="24" viewBox="0 0 24 24" fill="none" xmlns="http://www.w3.org/2000/svg">
<path fill-rule="evenodd" clip-rule="evenodd" d="M13.863 12.0277L23.6953 2.00187C24.1183 1.54042 24.0994 0.826731 23.6526 0.38828C23.2058 -0.0501712 22.4919 -0.0555731 22.0385 0.376067L12.2217 10.3864L2.0024 0.360583C1.70983 0.0532729 1.27294 -0.0700084 0.862888 0.0390316C0.452831 0.148072 0.134886 0.472072 0.0336018 0.884114C-0.0676825 1.29615 0.0638192 1.73063 0.376594 2.01735L10.5805 12.0277L0.376594 22.038C-0.0550457 22.4914 -0.0496438 23.2053 0.388807 23.6521C0.827258 24.0989 1.54095 24.1178 2.0024 23.6947L12.2217 13.669L22.0385 23.6793C22.4919 24.1109 23.2058 24.1055 23.6526 23.667C24.0994 23.2286 24.1183 22.5149 23.6953 22.0535L13.863 12.0277Z" fill="black"/>
</svg>
